<svg width="{{ width | default(16) }}" height="{{ height | default(16) }}" viewBox="0 0 16 16" class="{{ class | default('') }}" fill="none" xmlns="http://www.w3.org/2000/svg">
<path d="M12 5.60001C12 4.46842 11.5786 3.38318 10.8284 2.58302C10.0783 1.78286 9.06086 1.33334 8 1.33334C6.93913 1.33334 5.92172 1.78286 5.17157 2.58302C4.42142 3.38318 4 4.46842 4 5.60001C4 10.5778 2 12 2 12H14C14 12 12 10.5778 12 5.60001Z" fill="currentColor"/>
<path d="M11.5 5.59995C11.5 4.59102 11.124 3.62937 10.4639 2.92514C9.80464 2.22195 8.91746 1.83334 8 1.83334C7.08253 1.83334 6.19537 2.22195 5.53613 2.92514C4.87599 3.62938 4.50001 4.59103 4.5 5.59995C4.5 8.15704 3.98582 9.83673 3.44531 10.8939C3.32649 11.1262 3.20492 11.327 3.08984 11.5003H12.9102C12.7951 11.327 12.6735 11.1262 12.5547 10.8939C12.0142 9.83673 11.5 8.15704 11.5 5.59995ZM12.5 5.59995C12.5 8.02021 12.9859 9.54039 13.4453 10.4388C13.6754 10.8888 13.9013 11.1871 14.0615 11.3675C14.1415 11.4576 14.2055 11.519 14.2461 11.555C14.2661 11.5728 14.2804 11.5851 14.2881 11.5912L14.2891 11.5921C14.4662 11.7181 14.5425 11.9446 14.4766 12.1517C14.4104 12.3589 14.2175 12.5003 14 12.5003H2C1.78245 12.5003 1.58961 12.3589 1.52343 12.1517C1.45813 11.9466 1.53153 11.7227 1.70508 11.596C1.70527 11.5959 1.70676 11.5948 1.70898 11.5931L1.70996 11.5921L1.71191 11.5912C1.71955 11.5851 1.73388 11.5728 1.7539 11.555C1.79445 11.519 1.85845 11.4576 1.93847 11.3675C2.09867 11.1871 2.32456 10.8888 2.55468 10.4388C3.01408 9.54039 3.5 8.02021 3.5 5.59995C3.50001 4.34581 3.96662 3.13659 4.80664 2.24057C5.64768 1.34355 6.79581 0.833344 8 0.833344C9.20419 0.833344 10.3523 1.34354 11.1934 2.24057C12.0334 3.1366 12.5 4.34581 12.5 5.59995Z" fill="currentColor"/>
<path d="M8.72069 13.749C8.85924 13.5102 9.16542 13.4289 9.40428 13.5674C9.64314 13.7059 9.72446 14.0121 9.58592 14.251C9.44485 14.4942 9.24981 14.7011 9.01659 14.8565L8.91502 14.9199C8.63679 15.0802 8.32117 15.1641 7.99998 15.1641C7.71908 15.1641 7.44246 15.1 7.19139 14.9766L7.08495 14.9199C6.8066 14.7597 6.57521 14.5288 6.41405 14.251C6.27551 14.0121 6.35685 13.706 6.59569 13.5674C6.83454 13.4289 7.14072 13.5102 7.27928 13.749C7.35249 13.8753 7.45759 13.9799 7.58397 14.0527C7.71049 14.1256 7.85404 14.1641 7.99998 14.1641C8.14594 14.1641 8.28948 14.1256 8.416 14.0527L8.50682 13.9922C8.59302 13.9261 8.66579 13.8437 8.72069 13.749Z" fill="currentColor"/>
</svg>
