<svg width="{{ width | default(16) }}" height="{{ height | default(16) }}" viewBox="0 0 16 16" class="{{ class | default('') }}" fill="none" xmlns="http://www.w3.org/2000/svg">
<path d="M13.4196 5.50782C13.6916 5.55564 13.8737 5.81495 13.8258 6.08692L12.4958 13.6504C12.3417 14.527 11.5801 15.167 10.6901 15.167H5.31022C4.42017 15.167 3.65868 14.527 3.50456 13.6504L2.17448 6.08692C2.12668 5.81507 2.30798 5.55581 2.57975 5.50782C2.8516 5.46002 3.11087 5.64133 3.15885 5.9131L4.48893 13.4775C4.55899 13.876 4.90567 14.167 5.31022 14.167H10.6901C11.0946 14.167 11.4404 13.876 11.5104 13.4775L12.8405 5.9131C12.8884 5.64135 13.1478 5.46018 13.4196 5.50782Z" fill="currentColor"/>
<path d="M9.75 2.66635C9.74982 2.20637 9.37699 1.83352 8.91699 1.83334H7.08301C6.62303 1.83352 6.25018 2.20637 6.25 2.66635V3.50034H9.75V2.66635ZM10.75 3.50034H14C14.2761 3.50034 14.5 3.72419 14.5 4.00034C14.4998 4.27633 14.276 4.50034 14 4.50034H2C1.72397 4.50034 1.50018 4.27633 1.5 4.00034C1.5 3.72419 1.72386 3.50034 2 3.50034H5.25V2.66635C5.25018 1.65409 6.07074 0.833519 7.08301 0.833344H8.91699C9.92928 0.833519 10.7498 1.65409 10.75 2.66635V3.50034Z" fill="currentColor"/>
</svg>
