<svg width="{{ width | default(16) }}" height="{{ height | default(16) }}" viewBox="0 0 16 16" class="{{ class | default('') }}" fill="none" xmlns="http://www.w3.org/2000/svg">
<path d="M10.2084 2.42762C10.9244 1.71167 12.0852 1.71167 12.8011 2.42762L13.7445 3.37C14.4603 4.08585 14.4601 5.24681 13.7445 5.96277L6.34704 13.3602C6.04279 13.6644 5.64101 13.8516 5.21228 13.8895L3.38513 14.0516C2.66187 14.1156 2.05683 13.5101 2.12048 12.787L2.28161 10.9598C2.31949 10.531 2.50752 10.1285 2.81189 9.8241L10.2084 2.42762ZM3.51892 10.5321C3.38056 10.6705 3.29492 10.8529 3.27771 11.0477L3.11657 12.8749C3.10762 12.9781 3.19402 13.0647 3.29724 13.0555L5.12439 12.8934C5.31905 12.8761 5.50172 12.7914 5.64001 12.6532L11.6967 6.59558L9.57458 4.47449L3.51892 10.5321ZM12.0941 3.13465C11.7686 2.80921 11.2409 2.8092 10.9154 3.13465L10.2816 3.76746L12.4027 5.88855L13.0365 5.25574C13.3619 4.9303 13.3619 4.40246 13.0365 4.07703L12.0941 3.13465Z" fill="currentColor"/>
</svg>
