<svg width="{{ width | default(16) }}" height="{{ height | default(16) }}" viewBox="0 0 16 16" class="{{ class | default('') }}" fill="none" xmlns="http://www.w3.org/2000/svg">
<path fill-rule="evenodd" clip-rule="evenodd" d="M9.38065 1.15175C10.9082 1.03983 12.0231 1.65661 12.7255 3.0021C13.2552 4.35559 13.0322 5.56544 12.0565 6.63164C12.0849 7.53576 12.0944 8.44195 12.085 9.35024C12.9011 9.34549 13.7172 9.35024 14.5332 9.36448C14.7208 9.44555 14.8252 9.58788 14.8463 9.79148C14.8132 9.95761 14.7515 10.1142 14.6613 10.2612C13.9044 11.6325 13.1548 13.0085 12.4124 14.3889C12.2986 14.5691 12.142 14.6972 11.9427 14.7732C8.38553 14.8204 4.82715 14.8299 1.26756 14.8017C1.22485 14.778 1.19164 14.7447 1.16792 14.702C1.14894 11.5612 1.14894 8.42031 1.16792 5.27946C1.24858 5.04697 1.40514 4.8904 1.63763 4.80976C2.53908 4.79077 3.44053 4.79077 4.34199 4.80976C4.48182 4.85838 4.60044 4.93905 4.69783 5.05173C4.98657 5.41548 5.28547 5.77131 5.59454 6.11924C6.11494 6.16515 6.63683 6.17466 7.16022 6.14771C6.60492 5.28746 6.46734 4.36228 6.74745 3.37217C7.20497 2.13166 8.08273 1.39152 9.38065 1.15175ZM9.77919 1.60722C10.9765 1.6623 11.8257 2.23164 12.327 3.31524C12.7758 4.73011 12.3915 5.85455 11.1741 6.68858C10.8873 6.84742 10.5837 6.96129 10.2631 7.03018C10.1074 7.25177 9.9556 7.47475 9.80765 7.69916C9.65971 7.47475 9.5079 7.25177 9.35218 7.03018C7.9374 6.67844 7.18778 5.77698 7.10329 4.32582C7.15257 3.14752 7.71243 2.31249 8.78284 1.82072C9.1085 1.69966 9.44063 1.62849 9.77919 1.60722ZM4.25659 9.80571C7.61569 9.80096 10.9748 9.80571 14.3339 9.81995C13.5569 11.2458 12.7836 12.6739 12.0138 14.1042C11.9299 14.2531 11.8018 14.3337 11.6295 14.3462C8.34636 14.3652 5.06315 14.3652 1.77996 14.3462C2.60947 12.8342 3.43502 11.3207 4.25659 9.80571Z" fill="currentColor"/>
<path fill-rule="evenodd" clip-rule="evenodd" d="M8.55511 2.97364C8.65411 2.96465 8.74902 2.97888 8.83978 3.01634C9.15807 3.33937 9.48068 3.65724 9.80765 3.96998C10.1251 3.66675 10.4383 3.35835 10.7471 3.0448C10.8717 2.95631 10.9998 2.95156 11.1314 3.03057C11.2134 3.14783 11.2134 3.2617 11.1314 3.37217C10.8083 3.69046 10.4905 4.01308 10.1777 4.34005C10.4905 4.66702 10.8083 4.98964 11.1314 5.30793C11.2468 5.64797 11.1282 5.76659 10.7755 5.66377C10.4572 5.34072 10.1346 5.02286 9.80765 4.71012C9.48068 5.02286 9.15807 5.34072 8.83978 5.66377C8.46823 5.76061 8.35911 5.63251 8.51241 5.27946C8.82594 4.97068 9.13435 4.65754 9.43758 4.34005C9.12484 4.01308 8.80698 3.69046 8.48394 3.37217C8.41044 3.21901 8.43415 3.08617 8.55511 2.97364Z" fill="currentColor"/>
<path fill-rule="evenodd" clip-rule="evenodd" d="M4.45586 12.0831C5.36686 12.0783 6.2778 12.0831 7.18869 12.0973C7.27455 12.1408 7.31249 12.212 7.30256 12.3108C7.31249 12.4096 7.27455 12.4808 7.18869 12.5243C6.27775 12.5433 5.3668 12.5433 4.45586 12.5243C4.37 12.4808 4.33206 12.4096 4.34199 12.3108C4.33579 12.2093 4.37376 12.1334 4.45586 12.0831Z" fill="currentColor"/>
<path fill-rule="evenodd" clip-rule="evenodd" d="M3.77265 13.2218C5.21502 13.217 6.65733 13.2218 8.09963 13.236C8.18549 13.2795 8.22344 13.3507 8.2135 13.4495C8.22344 13.5483 8.18549 13.6195 8.09963 13.663C6.6573 13.682 5.21499 13.682 3.77265 13.663C3.68679 13.6195 3.64885 13.5483 3.65878 13.4495C3.65258 13.348 3.69055 13.2721 3.77265 13.2218Z" fill="currentColor"/>
</svg>
