<svg width="{{ width | default(16) }}" height="{{ height | default(16) }}" viewBox="0 0 16 16" class="{{ class | default('') }}" fill="none" xmlns="http://www.w3.org/2000/svg">
<path d="M12.167 3.33301C12.1668 2.87291 11.7932 2.5 11.333 2.5C10.873 2.50018 10.5002 2.87302 10.5 3.33301C10.5 3.79314 10.8729 4.16682 11.333 4.16699C11.7933 4.16699 12.167 3.79325 12.167 3.33301ZM13.167 3.33301C13.167 4.34553 12.3456 5.16699 11.333 5.16699C10.3206 5.16682 9.50001 4.34542 9.50001 3.33301C9.50019 2.32075 10.3207 1.50018 11.333 1.5C12.3455 1.5 13.1668 2.32064 13.167 3.33301Z" fill="currentColor"/>
<path d="M5.50034 3.33301C5.50016 2.87292 5.12648 2.5 4.66635 2.5C4.20637 2.50018 3.83352 2.87303 3.83334 3.33301C3.83334 3.79314 4.20626 4.16682 4.66635 4.16699C5.12659 4.16699 5.50034 3.79325 5.50034 3.33301ZM6.50034 3.33301C6.50034 4.34553 5.67887 5.16699 4.66635 5.16699C3.65398 5.16682 2.83334 4.34542 2.83334 3.33301C2.83352 2.32074 3.65409 1.50018 4.66635 1.5C5.67877 1.5 6.50016 2.32063 6.50034 3.33301Z" fill="currentColor"/>
<path d="M5.50034 12.6663C5.50016 12.2062 5.12649 11.8333 4.66635 11.8333C4.20637 11.8335 3.83352 12.2063 3.83334 12.6663C3.83334 13.1265 4.20626 13.5001 4.66635 13.5003C5.12659 13.5003 5.50034 13.1266 5.50034 12.6663ZM6.50034 12.6663C6.50034 13.6789 5.67887 14.5003 4.66635 14.5003C3.65398 14.5001 2.83334 13.6788 2.83334 12.6663C2.83352 11.6541 3.65409 10.8335 4.66635 10.8333C5.67876 10.8333 6.50016 11.6539 6.50034 12.6663Z" fill="currentColor"/>
<path d="M4.16668 11.3337V4.66667C4.16668 4.39052 4.39021 4.16699 4.66635 4.16699C4.94249 4.16699 5.16668 4.39052 5.16668 4.66667V11.3337L5.15691 11.4342C5.11026 11.6621 4.90795 11.8333 4.66635 11.8333C4.42475 11.8333 4.22309 11.6621 4.17644 11.4342L4.16668 11.3337Z" fill="currentColor"/>
<path d="M4.16668 11.3337V10.6667C4.16668 9.67916 4.57048 9.04552 5.00457 8.66569C5.21505 8.48155 5.42496 8.36343 5.58367 8.29069C5.66335 8.25418 5.73117 8.22783 5.78191 8.21061C5.80551 8.2026 5.8257 8.19671 5.84148 8.19206L9.84148 6.85905L9.87859 6.84831C9.88244 6.84715 9.88776 6.84529 9.89617 6.84245C9.91828 6.83495 9.95455 6.82114 9.99968 6.80046C10.0909 6.75863 10.2148 6.68917 10.3376 6.58171C10.5701 6.37819 10.8336 6.01236 10.8337 5.33366V4.66667C10.8337 4.39052 11.0569 4.16699 11.333 4.16699C11.609 4.16717 11.8337 4.39063 11.8337 4.66667V5.33366C11.8336 6.32098 11.4298 6.95485 10.9958 7.33464C10.7853 7.51877 10.5754 7.63689 10.4167 7.70964C10.3371 7.74613 10.2692 7.77249 10.2184 7.78971C10.193 7.79834 10.1713 7.80449 10.155 7.80925C10.147 7.81156 10.14 7.81262 10.1344 7.81413L6.15789 9.14128C6.14597 9.14524 6.13394 9.14896 6.12175 9.15202C6.11778 9.15322 6.11136 9.15511 6.1032 9.15788C6.08104 9.1654 6.04478 9.17822 5.99968 9.19889C5.9085 9.2407 5.78546 9.31034 5.66277 9.41764C5.43019 9.62115 5.16668 9.98751 5.16668 10.6667V11.3337C5.1665 11.6097 4.94239 11.8333 4.66635 11.8333C4.39032 11.8333 4.16685 11.6097 4.16668 11.3337Z" fill="currentColor"/>
</svg>
