<svg width="{{ width | default(16) }}" height="{{ height | default(16) }}" viewBox="0 0 16 16" class="{{ class | default('') }}" fill="none" xmlns="http://www.w3.org/2000/svg">
<path fill-rule="evenodd" clip-rule="evenodd" d="M6.42186 1.0156C8.65958 0.894644 10.519 1.66548 12 3.3281C13.1975 4.82523 13.6975 6.53357 13.5 8.4531C14.1125 9.33419 14.2688 10.2925 13.9687 11.3281C13.9206 11.4674 13.8633 11.6028 13.7969 11.7344C14.2964 12.2495 14.8016 12.7599 15.3125 13.2656C15.6149 13.8418 15.5264 14.347 15.0469 14.7812C14.6566 14.9982 14.2608 15.0086 13.8594 14.8125C13.3234 14.3025 12.7921 13.7869 12.2656 13.2656C11.4886 13.6154 10.6917 13.6675 9.87499 13.4219C8.44296 14.0763 6.95858 14.2274 5.42186 13.875C3.04497 13.196 1.47726 11.6804 0.71874 9.3281C0.136484 7.01173 0.615649 4.94923 2.15624 3.1406C3.31296 1.90339 4.73483 1.19506 6.42186 1.0156ZM6.79686 1.54685C7.21924 1.51859 7.58383 1.6488 7.89061 1.93748C8.33258 2.41188 8.66071 2.95876 8.87499 3.5781C9.0394 4.03791 9.16961 4.50666 9.26561 4.98435C7.75521 4.98435 6.24477 4.98435 4.73436 4.98435C4.90136 3.99841 5.26074 3.09216 5.81249 2.2656C6.06827 1.92049 6.3964 1.68091 6.79686 1.54685ZM8.45311 1.73435C10.2573 2.22075 11.5802 3.29888 12.4219 4.96873C11.5573 4.98957 10.6927 4.98957 9.82811 4.96873C9.65283 4.03657 9.33511 3.15638 8.87499 2.3281C8.73965 2.12528 8.59902 1.92736 8.45311 1.73435ZM4.64061 5.5156C6.21368 5.50519 7.78658 5.5156 9.35936 5.54685C9.4669 6.16701 9.51377 6.79201 9.49999 7.42185C8.59549 7.86291 8.01736 8.57123 7.76561 9.54685C6.71646 9.55713 5.66958 9.54673 4.62499 9.5156C4.43274 8.17976 4.43793 6.84641 4.64061 5.5156ZM9.92186 5.5156C10.8284 5.50519 11.7346 5.5156 12.6406 5.54685C12.9206 6.30379 13.03 7.08504 12.9687 7.8906C12.1131 7.17935 11.1444 6.9606 10.0625 7.23435C10.0334 6.65973 9.98649 6.08682 9.92186 5.5156ZM10.6719 7.6406C11.9275 7.62473 12.8285 8.17682 13.375 9.29685C13.8485 10.7202 13.4683 11.8504 12.2344 12.6875C11.1607 13.2332 10.1399 13.1498 9.17186 12.4375C8.15493 11.4777 7.93096 10.3579 8.49999 9.0781C8.98371 8.23476 9.70765 7.7556 10.6719 7.6406ZM4.73436 10.0781C5.71352 10.0781 6.69271 10.0781 7.67186 10.0781C7.5989 10.9685 7.8489 11.7549 8.42186 12.4375C8.23965 12.745 8.01046 13.0158 7.73436 13.25C7.26265 13.5902 6.78349 13.6006 6.29686 13.2812C5.8623 12.9193 5.53418 12.4766 5.31249 11.9531C5.04237 11.3518 4.84968 10.7268 4.73436 10.0781ZM13.4844 12.2344C13.9826 12.6753 14.4565 13.144 14.9062 13.6406C15.0219 14.2228 14.7876 14.4676 14.2031 14.375C13.6937 13.9385 13.2146 13.4698 12.7656 12.9687C13.0541 12.7688 13.2937 12.524 13.4844 12.2344ZM8.79686 12.8281C8.91696 12.9219 9.04196 13.0105 9.17186 13.0937C8.93258 13.2152 8.68258 13.2985 8.42186 13.3437C8.55861 13.1792 8.68361 13.0073 8.79686 12.8281Z" fill="currentColor"/>
<path d="M12.5599 10.3493C12.5599 11.2808 11.8048 12.0359 10.8733 12.0359C9.94187 12.0359 9.18677 11.2808 9.18677 10.3493C9.18677 9.41785 9.94187 8.66275 10.8733 8.66275C11.8048 8.66275 12.5599 9.41785 12.5599 10.3493Z" fill="currentColor"/>
</svg>