<svg width="{{ width | default(16) }}" height="{{ height | default(16) }}" viewBox="0 0 16 16" class="{{ class | default('') }}" fill="none" xmlns="http://www.w3.org/2000/svg">
<path d="M8.97981 9.64649C9.17507 9.45123 9.49158 9.45123 9.68684 9.64649L10.6868 10.6465C10.8821 10.8418 10.8821 11.1583 10.6868 11.3535C10.4916 11.5488 10.1751 11.5488 9.97981 11.3535L8.97981 10.3535C8.78455 10.1583 8.78455 9.84176 8.97981 9.64649Z" fill="currentColor"/>
<path d="M9.16666 8.33334C9.16666 7.50489 8.49511 6.83334 7.66666 6.83334C6.83823 6.83334 6.16666 7.50489 6.16666 8.33334C6.16666 9.1618 6.83823 9.83334 7.66666 9.83334C8.08172 9.83334 8.45703 9.66574 8.72916 9.39291C9.00032 9.12102 9.16666 8.74696 9.16666 8.33334ZM10.1667 8.33334C10.1667 9.02231 9.88764 9.64727 9.43716 10.099C8.98515 10.5521 8.35812 10.8333 7.66666 10.8333C6.28595 10.8333 5.16666 9.71409 5.16666 8.33334C5.16666 6.9526 6.28595 5.83334 7.66666 5.83334C9.0474 5.83334 10.1667 6.9526 10.1667 8.33334Z" fill="currentColor"/>
<path d="M3.16666 14.1664H12.8336V3.87338L10.7926 1.83334H3.16666V14.1664ZM13.8336 14.2669C13.8335 14.7639 13.4302 15.1664 12.9333 15.1664H3.06705C2.57009 15.1664 2.1668 14.7639 2.16666 14.2669V1.73373C2.16666 1.23668 2.56999 0.833344 3.06705 0.833344H10.8346C11.0731 0.833424 11.3017 0.928365 11.4704 1.09702L13.57 3.19565C13.7387 3.36444 13.8336 3.5937 13.8336 3.83237V14.2669Z" fill="currentColor"/>
<path d="M10.1667 1.33334C10.1667 1.0572 10.3905 0.833344 10.6667 0.833344C10.9428 0.833344 11.1667 1.0572 11.1667 1.33334V3.50034H13.3336C13.6096 3.50051 13.8336 3.7243 13.8336 4.00034C13.8335 4.27622 13.6095 4.50016 13.3336 4.50034H11.067C10.57 4.50034 10.1667 4.09699 10.1667 3.59995V1.33334Z" fill="currentColor"/>
</svg>
