<svg width="{{ width | default(16) }}" height="{{ height | default(16) }}" viewBox="0 0 16 16" class="{{ class | default('') }}" fill="none" xmlns="http://www.w3.org/2000/svg">
<path d="M1.3508 5.23392C2.89732 1.59053 7.10487 -0.109484 10.7483 1.43705C14.3916 2.9836 16.0916 7.19114 14.5451 10.8345C13.9411 12.2575 12.9298 13.3847 11.7053 14.1372C11.47 14.2818 11.1624 14.2084 11.0178 13.9732C10.8732 13.7379 10.9466 13.4303 11.1819 13.2857C12.2352 12.6384 13.104 11.6693 13.6242 10.4439C14.9549 7.30898 13.4924 3.68879 10.3576 2.35795C7.22268 1.02723 3.60248 2.48965 2.2717 5.62455C1.06398 8.46973 2.1568 11.7158 4.7131 13.2857C4.94835 13.4301 5.02248 13.7379 4.87814 13.9732C4.73364 14.2085 4.42498 14.2818 4.18967 14.1372C1.21827 12.3122 -0.0530404 8.54124 1.3508 5.23392Z" fill="currentColor"/>
<path d="M10.8333 10.6667C10.8333 10.3905 11.0572 10.1667 11.3333 10.1667C11.6095 10.1667 11.8333 10.3905 11.8333 10.6667V13.4997H14.6664C14.9424 13.4997 15.1662 13.7237 15.1664 13.9997C15.1664 14.2758 14.9425 14.4997 14.6664 14.4997H11.7337C11.2367 14.4997 10.8335 14.0972 10.8333 13.6003V10.6667Z" fill="currentColor"/>
</svg>
