<svg width="{{ width | default(16) }}" height="{{ height | default(16) }}" viewBox="0 0 16 16" class="{{ class | default('') }}" fill="none" xmlns="http://www.w3.org/2000/svg">
<g clip-path="url(#clip0_102_892)">
<path d="M9.50001 8.00001C9.50001 7.17155 8.82847 6.50001 8.00001 6.50001C7.17155 6.50001 6.50001 7.17155 6.50001 8.00001C6.50001 8.82847 7.17155 9.50001 8.00001 9.50001C8.82847 9.50001 9.50001 8.82847 9.50001 8.00001ZM10.5 8.00001C10.5 9.38075 9.38075 10.5 8.00001 10.5C6.61927 10.5 5.50001 9.38075 5.50001 8.00001C5.50001 6.61927 6.61927 5.50001 8.00001 5.50001C9.38075 5.50001 10.5 6.61927 10.5 8.00001Z" fill="currentColor"/>
<path d="M8.62338 0.833344L8.70737 0.840179C8.89833 0.872554 9.05628 1.01415 9.10678 1.20639L9.45834 2.54428L10.7503 3.07553L11.6751 2.28647C11.8735 2.11694 12.1693 2.1283 12.3539 2.31284L13.6869 3.64682C13.8705 3.83061 13.8829 4.12414 13.7152 4.3226L12.9281 5.25229L13.4476 6.50717L14.7904 6.84897C15.0117 6.9055 15.1664 7.10483 15.1664 7.33334V8.6517C15.1662 8.87926 15.0126 9.0778 14.7923 9.1351L13.4417 9.48569L12.9222 10.7425L13.7152 11.6771C13.883 11.8756 13.8707 12.17 13.6869 12.3539L12.3539 13.6869C12.1661 13.8747 11.8641 13.8827 11.6664 13.7054C11.666 13.7051 11.6642 13.7042 11.6634 13.7035C11.6619 13.7021 11.6595 13.7002 11.6566 13.6976C11.6503 13.692 11.6412 13.6829 11.6292 13.6722C11.6052 13.6508 11.5702 13.6201 11.5277 13.5824C11.4424 13.5067 11.326 13.4035 11.2005 13.2943C11.0454 13.1593 10.8855 13.024 10.7562 12.9173L9.49252 13.4408L9.1517 14.7894C9.09551 15.0113 8.89521 15.1664 8.66635 15.1664H7.33334C7.10448 15.1664 6.90517 15.0112 6.84897 14.7894L6.50815 13.4408L5.27866 12.9349L4.31577 13.721C4.11699 13.8829 3.82817 13.868 3.64682 13.6869L2.31284 12.3539C2.12547 12.1665 2.11704 11.8652 2.2933 11.6673L3.09311 10.7689L2.56674 9.52182L1.20151 9.14877C0.984149 9.08933 0.833344 8.89171 0.833344 8.66635V7.33334C0.833344 7.10098 0.993779 6.89885 1.22006 6.84604L2.54819 6.53549L3.05991 5.27768L2.27866 4.31577C2.11719 4.11703 2.13197 3.82801 2.31284 3.64682L3.64682 2.31284L3.72202 2.25131C3.90769 2.12681 4.15933 2.1394 4.33237 2.2933L5.23178 3.09311L6.47885 2.56772L6.83725 1.20639L6.86557 1.12729C6.94539 0.950792 7.12188 0.833355 7.32065 0.833344H8.62338ZM7.38315 3.06088C7.3437 3.21078 7.23685 3.33455 7.09409 3.39487L5.33041 4.13803C5.15285 4.21285 4.94806 4.17912 4.80405 4.05112L4.01987 3.35287L3.33823 4.03452L4.02377 4.87729C4.13879 5.0189 4.1677 5.2122 4.09897 5.3812L3.37827 7.15268C3.31711 7.303 3.18669 7.41462 3.02866 7.45151L1.83334 7.72983V8.28452L3.06577 8.62143L3.17123 8.66342C3.27066 8.71698 3.35013 8.80339 3.39487 8.90952L4.13803 10.6722C4.21299 10.85 4.17855 11.0555 4.05014 11.1996L3.35385 11.9798L4.03354 12.6595L4.87827 11.973L4.93393 11.933C5.0686 11.8509 5.2358 11.8368 5.38412 11.8978L7.12143 12.6126L7.22397 12.6693C7.31835 12.7374 7.38726 12.8373 7.41635 12.9525L7.72202 14.1664H8.27768L8.5853 12.9525L8.62631 12.8441C8.68005 12.7411 8.76875 12.659 8.87827 12.6136L10.6458 11.8822L10.7064 11.8607C10.8499 11.8219 11.0045 11.8492 11.1273 11.9369C11.2982 12.059 11.6087 12.3244 11.8568 12.5404C11.8986 12.5768 11.9398 12.6126 11.9789 12.6468L12.6537 11.972L11.9622 11.1566C11.8411 11.0137 11.8106 10.815 11.8822 10.6419L12.6136 8.87436L12.6703 8.7728C12.7377 8.67934 12.8367 8.611 12.9505 8.58139L14.1664 8.26401V7.72104L12.9583 7.4144C12.8056 7.3755 12.6798 7.26709 12.6195 7.12143L11.888 5.35483C11.8164 5.18195 11.8473 4.98306 11.9681 4.84018L12.6537 4.02768L11.973 3.34702L11.1683 4.03549C11.0257 4.15738 10.8262 4.18888 10.6527 4.11752L8.84799 3.37534C8.70328 3.31567 8.59485 3.19176 8.55502 3.04037L8.23764 1.83334H7.70639L7.38315 3.06088Z" fill="currentColor"/>
</g>
<defs>
<clipPath id="clip0_102_892">
<rect width="16" height="16" fill="white"/>
</clipPath>
</defs>
</svg>
