<svg width="{{ width | default(16) }}" height="{{ height | default(16) }}" viewBox="0 0 16 16" class="{{ class | default('') }}" fill="none" xmlns="http://www.w3.org/2000/svg">
<path d="M9.33334 6.16667C9.60949 6.16667 9.83334 6.39052 9.83334 6.66667C9.83334 6.94281 9.60949 7.16667 9.33334 7.16667H1.33334C1.0572 7.16667 0.833344 6.94281 0.833344 6.66667C0.833344 6.39052 1.0572 6.16667 1.33334 6.16667H9.33334Z" fill="currentColor"/>
<path d="M6.66635 8.83333C6.94249 8.83333 7.16635 9.05719 7.16635 9.33333C7.16635 9.60948 6.94249 9.83333 6.66635 9.83333H1.33334C1.0572 9.83333 0.833344 9.60948 0.833344 9.33333C0.833344 9.05719 1.0572 8.83333 1.33334 8.83333H6.66635Z" fill="currentColor"/>
<path d="M4.00034 11.5C4.27633 11.5002 4.50034 11.724 4.50034 12C4.50034 12.276 4.27633 12.4998 4.00034 12.5H1.33334C1.0572 12.5 0.833344 12.2761 0.833344 12C0.833344 11.7239 1.0572 11.5 1.33334 11.5H4.00034Z" fill="currentColor"/>
<path d="M12.0003 3.5C12.2763 3.50018 12.5003 3.72397 12.5003 4C12.5003 4.27603 12.2763 4.49982 12.0003 4.5H1.33334C1.0572 4.5 0.833344 4.27614 0.833344 4C0.833344 3.72386 1.0572 3.5 1.33334 3.5H12.0003Z" fill="currentColor"/>
<path d="M12.1667 6.66667C12.1667 6.39052 12.3905 6.16667 12.6667 6.16667C12.9428 6.16667 13.1667 6.39052 13.1667 6.66667V12.1266L14.3132 10.9801C14.5084 10.7849 14.8249 10.7849 15.0202 10.9801C15.2153 11.1754 15.2154 11.492 15.0202 11.6872L13.0202 13.6872C12.825 13.8822 12.5084 13.8822 12.3132 13.6872L10.3132 11.6872C10.118 11.492 10.1181 11.1754 10.3132 10.9801C10.5084 10.7849 10.8249 10.7849 11.0202 10.9801L12.1667 12.1266V6.66667Z" fill="currentColor"/>
</svg>
