<svg width="{{ width | default(16) }}" height="{{ height | default(16) }}" viewBox="0 0 16 16" class="{{ class | default('') }}" fill="none" xmlns="http://www.w3.org/2000/svg">
<path fill-rule="evenodd" clip-rule="evenodd" d="M5.96695 1.14287C6.32812 1.11329 6.68327 1.10031 7.03489 1.14287C7.98996 1.25842 8.86211 1.59324 9.65135 2.14733C9.94504 2.3884 10.2387 2.62947 10.5324 2.87055C11.4033 3.36788 12.2843 3.38574 13.1756 2.92412C13.365 2.80109 13.543 2.66269 13.7095 2.50894C13.9138 2.70051 14.1141 2.89694 14.3103 3.09822C14.3281 3.12501 14.3281 3.1518 14.3103 3.17858C13.6116 3.93664 13.4158 4.81165 13.7229 5.80358C13.8583 6.15584 14.054 6.46832 14.3103 6.74108C14.3281 6.75895 14.3281 6.77679 14.3103 6.79465C14.1141 6.99595 13.9138 7.19237 13.7095 7.38394C13.1871 6.88765 12.5641 6.63766 11.8406 6.63394C11.8085 7.8964 11.3902 9.00801 10.5858 9.96876C10.7864 10.1745 10.9911 10.3754 11.1999 10.5714C11.2751 10.5094 11.3463 10.4424 11.4135 10.3705C11.6271 10.3527 11.8406 10.3527 12.0542 10.3705C12.9763 11.3 13.9018 12.2241 14.8309 13.1429C14.8309 13.3572 14.8309 13.5714 14.8309 13.7857C14.466 14.1339 14.11 14.4911 13.7629 14.8572C13.5494 14.8572 13.3358 14.8572 13.1222 14.8572C12.2064 13.925 11.2853 12.9965 10.3589 12.0714C10.3411 11.8572 10.3411 11.6429 10.3589 11.4286C10.4305 11.3612 10.4972 11.2898 10.5591 11.2143C10.3637 11.0049 10.1635 10.7995 9.95839 10.5982C8.59099 11.7146 7.03805 12.094 5.29948 11.7366C3.44811 11.261 2.17103 10.1315 1.46823 8.34822C1.31938 7.91791 1.21704 7.48039 1.16119 7.03572C1.1131 6.65287 1.12109 6.35548 1.16119 5.9643C1.39599 3.67438 2.73942 2.15523 4.899 1.37055C5.25316 1.26828 5.60916 1.19238 5.96695 1.14287ZM13.2824 6.3393C12.3422 5.76525 11.4077 5.76972 10.479 6.35269C10.9289 5.71165 11.049 5.01075 10.8394 4.25001C10.7489 4.00583 10.6376 3.77369 10.5057 3.55358C11.3446 4.07756 12.2078 4.11774 13.0955 3.67412C13.1622 3.62501 13.229 3.5759 13.2957 3.5268C12.7157 4.45864 12.7113 5.39614 13.2824 6.3393ZM5.40628 4.59822C6.04675 4.5288 6.51398 4.77881 6.80796 5.34822C6.87315 5.51162 6.90874 5.68125 6.91475 5.85715C6.9281 6.78568 6.93256 7.71426 6.9281 8.64287C6.64331 8.64287 6.35854 8.64287 6.07374 8.64287C6.07374 8.35714 6.07374 8.07145 6.07374 7.78572C5.78895 7.78572 5.50418 7.78572 5.21939 7.78572C5.21939 8.07145 5.21939 8.35714 5.21939 8.64287C4.93459 8.64287 4.64982 8.64287 4.36503 8.64287C4.36057 7.71426 4.36503 6.78568 4.37838 5.85715C4.43415 5.19876 4.7768 4.77914 5.40628 4.59822ZM7.78246 4.78572C8.06725 4.78572 8.35202 4.78572 8.63681 4.78572C8.63681 6.07144 8.63681 7.35715 8.63681 8.64287C8.35202 8.64287 8.06725 8.64287 7.78246 8.64287C7.78246 7.35715 7.78246 6.07144 7.78246 4.78572Z" fill="currentColor"/>
<path fill-rule="evenodd" clip-rule="evenodd" d="M5.47303 5.41519C5.73627 5.3576 5.92762 5.44688 6.04705 5.68305C6.0604 6.09367 6.06485 6.50438 6.0604 6.91519C5.7756 6.91519 5.49083 6.91519 5.20604 6.91519C5.20158 6.50438 5.20604 6.09367 5.21939 5.68305C5.27337 5.56197 5.35793 5.4727 5.47303 5.41519Z" fill="currentColor"/>
<path fill-rule="evenodd" clip-rule="evenodd" d="M2.88326 14.8438C2.86546 14.8438 2.84766 14.8438 2.82986 14.8438C2.80993 14.1409 2.48955 13.6275 1.86871 13.3036C1.64725 13.2065 1.41586 13.1484 1.17454 13.1295C2.18361 13.001 2.74428 12.4296 2.85656 11.4152C2.96872 12.4295 3.52939 13.0009 4.53857 13.1295C3.65669 13.2152 3.10937 13.6884 2.89661 14.5491C2.88329 14.6469 2.87884 14.7451 2.88326 14.8438Z" fill="currentColor"/>
</svg>
