<svg width="{{ width | default(16) }}" height="{{ height | default(16) }}" viewBox="0 0 16 16" class="{{ class | default('') }}" fill="none" xmlns="http://www.w3.org/2000/svg">
<path d="M9.99999 0.833344C10.2761 0.833344 10.5 1.0572 10.5 1.33334C10.5 1.60949 10.2761 1.83334 9.99999 1.83334H5.99999C5.72385 1.83334 5.49999 1.60949 5.49999 1.33334C5.49999 1.0572 5.72385 0.833344 5.99999 0.833344H9.99999Z" fill="currentColor"/>
<path d="M7.49999 9.33367V6.66668C7.49999 6.39053 7.72385 6.16668 7.99999 6.16668C8.27613 6.16668 8.49999 6.39053 8.49999 6.66668V9.33367C8.49981 9.60966 8.27602 9.83367 7.99999 9.83367C7.72396 9.83367 7.50017 9.60966 7.49999 9.33367Z" fill="currentColor"/>
<path d="M12.8336 9.33302C12.8335 6.66379 10.6689 4.50001 7.99966 4.50001C5.33054 4.50019 3.16683 6.6639 3.16666 9.33302C3.16666 12.0023 5.33044 14.1668 7.99966 14.167C10.6691 14.167 12.8336 12.0024 12.8336 9.33302ZM13.8336 9.33302C13.8336 12.5547 11.2213 15.167 7.99966 15.167C4.77815 15.1668 2.16666 12.5546 2.16666 9.33302C2.16683 6.11161 4.77826 3.50019 7.99966 3.50001C11.2212 3.50001 13.8335 6.11151 13.8336 9.33302Z" fill="currentColor"/>
</svg>
