<svg width="{{ width | default(16) }}" height="{{ height | default(16) }}" viewBox="0 0 16 16" class="{{ class | default('') }}" fill="none" xmlns="http://www.w3.org/2000/svg">
<path d="M11.1422 4.15139C11.3375 3.95617 11.654 3.95614 11.8493 4.15139C12.0445 4.34664 12.0445 4.66317 11.8493 4.85842L8.70766 8.00002L11.8493 11.1416C12.0444 11.3369 12.0445 11.6534 11.8493 11.8487C11.654 12.0439 11.3375 12.0438 11.1422 11.8487L8.00063 8.70705L4.85903 11.8487C4.66378 12.0439 4.34725 12.0439 4.152 11.8487C3.95675 11.6534 3.95678 11.3369 4.152 11.1416L7.2936 8.00002L4.152 4.85842C3.95674 4.66316 3.95674 4.34665 4.152 4.15139C4.34726 3.95613 4.66377 3.95613 4.85903 4.15139L8.00063 7.29299L11.1422 4.15139Z" fill="currentColor"/>
</svg>
