<svg width="{{ width | default(16) }}" height="{{ height | default(16) }}" viewBox="0 0 16 16" class="{{ class | default('') }}" fill="none" xmlns="http://www.w3.org/2000/svg">
<path d="M13.5 3.33301C13.4998 2.87302 13.127 2.50018 12.667 2.5H3.33301C2.87303 2.50018 2.50018 2.87303 2.5 3.33301V13.2412L3.87598 11.5215C4.22389 11.0866 4.75067 10.833 5.30762 10.833H12.667C13.1271 10.8328 13.5 10.4601 13.5 10V3.33301ZM11.333 7.5C11.6091 7.5 11.833 7.72386 11.833 8C11.833 8.27614 11.6091 8.5 11.333 8.5H4.66699C4.39085 8.5 4.16699 8.27614 4.16699 8C4.16699 7.72386 4.39085 7.5 4.66699 7.5H11.333ZM8.66699 4.83301C8.94288 4.83318 9.16682 5.05712 9.16699 5.33301C9.16699 5.60904 8.94299 5.83283 8.66699 5.83301H4.66699C4.39085 5.83301 4.16699 5.60915 4.16699 5.33301C4.16717 5.05702 4.39096 4.83301 4.66699 4.83301H8.66699ZM14.5 10C14.5 11.0124 13.6794 11.8328 12.667 11.833H5.30762C5.05447 11.833 4.81538 11.9488 4.65723 12.1465L3.10254 14.0889C2.57102 14.7527 1.50003 14.377 1.5 13.5264V3.33301C1.50018 2.32074 2.32074 1.50018 3.33301 1.5H12.667C13.6793 1.50018 14.4998 2.32075 14.5 3.33301V10Z" fill="currentColor"/>
</svg>
