<svg width="{{ width | default(16) }}" height="{{ height | default(16) }}" viewBox="0 0 16 16" class="{{ class | default('') }}" fill="none" xmlns="http://www.w3.org/2000/svg">
<path d="M11.2207 1.5C12.0791 1.50002 12.8423 2.06199 13.0732 2.88867L14.4307 7.75C14.7705 8.96726 13.8296 10.1387 12.5771 10.1387H9.42969L10.1221 12.3945C10.2811 12.9124 10.1682 13.4727 9.8252 13.8916C9.1041 14.772 7.71021 14.6835 7.11328 13.7119L5.18652 10.5742C5.02241 10.3073 4.72262 10.1387 4.39355 10.1387H2.42676C1.92614 10.1387 1.5 9.73888 1.5 9.22168V2.41699C1.5 1.89982 1.92612 1.5 2.42676 1.5H11.2207ZM4.9873 9.23047C5.41921 9.36834 5.79592 9.65584 6.03906 10.0518L7.96484 13.1885C8.19941 13.5704 8.76338 13.61 9.05176 13.2578C9.1845 13.0956 9.22589 12.8835 9.16602 12.6885L8.43945 10.3223C8.25391 9.71801 8.72054 9.13867 9.32617 9.13867H12.5771C13.1994 9.13867 13.6212 8.5682 13.4678 8.01855L12.1104 3.1582C12.0038 2.77667 11.6443 2.50002 11.2207 2.5H4.9873V9.23047ZM2.5 9.13867H3.9873V2.5H2.5V9.13867Z" fill="currentColor"/>
<path d="M11.686 2.17783H2.0864V9.65492H5.02899L7.63391 13.9H9.37053L9.7082 12.887L8.79165 10.1373L9.37053 9.65492H13.3744L13.9533 8.25598L12.4578 2.85317L11.686 2.17783Z" fill="currentColor"/>
</svg>
