<svg width="{{ width | default(16) }}" height="{{ height | default(16) }}" viewBox="0 0 16 16" class="{{ class | default('') }}" fill="none" xmlns="http://www.w3.org/2000/svg">
<path d="M7.11328 2.28809C7.71023 1.31651 9.10412 1.22809 9.8252 2.10841C10.1682 2.52732 10.2811 3.08764 10.1221 3.60548L9.42969 5.86134H12.5771C13.8296 5.86134 14.7705 7.03274 14.4307 8.25001L13.0732 13.1113C12.8423 13.9381 12.079 14.5 11.2207 14.5H2.42676C1.92614 14.5 1.5 14.1002 1.5 13.583V6.77833C1.5 6.26116 1.92612 5.86134 2.42676 5.86134H4.39355C4.72262 5.86134 5.02241 5.69273 5.18652 5.42579L7.11328 2.28809ZM9.05176 2.7422C8.76337 2.39 8.19941 2.42964 7.96484 2.81153L6.03906 5.94825C5.79597 6.34408 5.41909 6.63065 4.9873 6.76856V13.5H11.2207C11.6443 13.5 12.0038 13.2234 12.1104 12.8418L13.4678 7.98145C13.6212 7.43181 13.1994 6.86134 12.5771 6.86134H9.32617C8.72052 6.86134 8.2539 6.28197 8.43945 5.67774L9.16602 3.31153C9.22588 3.11662 9.18449 2.90435 9.05176 2.7422ZM2.5 13.5H3.9873V6.86134H2.5V13.5Z" fill="currentColor"/>
</svg>
